<svg width="1920" height="218" viewBox="0 0 1920 218" fill="none" xmlns="http://www.w3.org/2000/svg">
<path d="M2051.84 0.852538L2054.11 36.654C1558.64 53.3622 1145.41 137.936 597.358 146.143C423.808 147.949 323.015 139.678 -16.8078 108.685L-16.9392 106.616L-9.55137 107.15C347.201 133.036 449.735 139.779 625.351 134.873C800.354 129.222 960.026 115.982 1112.72 99.7556C1280.73 81.8933 1439.88 60.44 1601.03 41.5344C1747.01 24.3254 1894.69 9.2914 2051.84 0.852538Z" fill="url(#paint0_linear_0:110)"/>
<path d="M1955.75 32.2546V217.822H-1.05273V107.656L5.8806 108.249C340.681 136.963 436.947 144.556 602.814 142.005C768.147 138.742 919.614 128.123 1064.41 114.597C1216.41 100.419 1361.08 83.0365 1506.81 67.6121C1514.01 66.8409 1521.08 66.0697 1528.28 65.3578C1666.95 50.8232 1807.08 38.3651 1955.75 32.2546Z" fill="white"/>
<defs>
<linearGradient id="paint0_linear_0:110" x1="-104.434" y1="90.6169" x2="5.69724" y2="-403.829" gradientUnits="userSpaceOnUse">
<stop stop-color="#009EE2"/>
<stop offset="1" stop-color="#273992"/>
</linearGradient>
</defs>
</svg>
