<svg width="157" height="100" viewBox="0 0 157 100" fill="none" xmlns="http://www.w3.org/2000/svg">
<circle cx="45.805" cy="53.805" r="45.805" fill="url(#paint0_linear_302:4251)"/>
<path d="M63.9115 66.0503L42.8881 72.4778L41.2643 68.8082C41.5031 68.1663 42.1902 67.4041 43.3258 66.5215L36.9124 45.544C35.5173 45.4686 34.5167 45.2056 33.9106 44.7552L33.2048 40.8049L43.946 37.521L45.5698 41.1906C45.258 41.9217 44.5755 42.6992 43.5223 43.5231L50.034 64.822L57.2867 62.6046C57.198 60.8917 57.4179 59.5864 57.9465 58.6886L61.4696 58.0632L63.9115 66.0503ZM78.481 61.9975C74.1355 63.326 70.4929 63.0677 67.5529 61.2227C64.6436 59.3682 62.3329 55.641 60.6208 50.0408C58.8993 44.4101 58.8098 39.9034 60.3521 36.5206C61.9157 33.0979 64.8856 30.7176 69.2616 29.3797C73.6683 28.0325 77.3075 28.2248 80.1794 29.9569C83.0819 31.6795 85.3892 35.3409 87.1013 40.9411C88.8135 46.5412 88.8911 51.1185 87.3343 54.6729C85.7776 58.2274 82.8264 60.6689 78.481 61.9975ZM66.4361 38.5254C65.821 40.4535 66.1168 43.3914 67.3237 47.339C68.5307 51.2867 69.9915 53.9855 71.7064 55.4354C73.4213 56.8854 75.2886 57.3017 77.3083 56.6842C79.3586 56.0573 80.6926 54.7293 81.3103 52.7C81.9186 50.6401 81.6193 47.6364 80.4124 43.6888C78.167 36.3443 74.841 33.3458 70.4343 34.693C68.384 35.3199 67.0513 36.5973 66.4361 38.5254ZM100.114 25.619C98.033 26.2552 96.6544 27.5467 95.978 29.4936C95.3323 31.431 95.6129 34.3736 96.8198 38.3212C99.1307 45.8798 102.367 49.0229 106.529 47.7505C108.181 47.2453 109.571 46.5361 110.697 45.6229L109.111 40.4359C107.563 40.4073 106.426 40.1359 105.7 39.6217L105.05 35.855L115.792 32.5711L117.359 36.0571C117.111 36.6683 116.537 37.3625 115.637 38.1397L118.233 46.6316C117.092 48.1518 115.704 49.4127 114.069 50.4144C112.456 51.3761 110.333 52.2592 107.702 53.0638C103.326 54.4017 99.7334 54.1447 96.9253 52.2928C94.1078 50.4103 91.843 46.669 90.1309 41.0689C88.4094 35.4382 88.3457 30.9068 89.94 27.4747C91.5648 24.0333 94.4887 21.667 98.7117 20.3759C102.965 19.0754 106.733 18.9775 110.016 20.0821C110.072 20.2657 110.18 20.6176 110.339 21.1378C110.498 21.6581 110.662 22.5783 110.831 23.8984C111.001 25.2186 111.008 26.3373 110.853 27.2546L106.63 28.5457C105.909 27.8292 105.215 26.6528 104.548 25.0165C103.091 24.9597 101.613 25.1606 100.114 25.619ZM136.442 44.277C132.097 45.6055 128.454 45.3473 125.514 43.5022C122.605 41.6478 120.294 37.9205 118.582 32.3204C116.86 26.6896 116.771 22.1829 118.313 18.8002C119.877 15.3774 122.847 12.9971 127.223 11.6592C131.629 10.312 135.269 10.5044 138.14 12.2364C141.043 13.9591 143.35 17.6205 145.062 23.2206C146.775 28.8207 146.852 33.398 145.295 36.9525C143.739 40.507 140.787 42.9485 136.442 44.277ZM124.397 20.805C123.782 22.7331 124.078 25.6709 125.285 29.6186C126.492 33.5662 127.953 36.265 129.667 37.715C131.382 39.1649 133.25 39.5812 135.269 38.9637C137.32 38.3369 138.654 37.0088 139.271 34.9795C139.88 32.9197 139.58 29.9159 138.373 25.9683C136.128 18.6239 132.802 15.6253 128.395 16.9725C126.345 17.5994 125.012 18.8769 124.397 20.805Z" fill="url(#paint1_linear_302:4251)"/>
<defs>
<linearGradient id="paint0_linear_302:4251" x1="45.805" y1="8" x2="45.805" y2="99.61" gradientUnits="userSpaceOnUse">
<stop stop-color="#073773"/>
<stop offset="0.604067" stop-color="#093974"/>
<stop offset="0.604167" stop-color="#C4C4C4"/>
</linearGradient>
<linearGradient id="paint1_linear_302:4251" x1="41.5309" y1="56.0084" x2="143.481" y2="22.9319" gradientUnits="userSpaceOnUse">
<stop stop-color="white"/>
<stop offset="0.442708" stop-color="white"/>
<stop offset="0.485971" stop-color="#073773"/>
<stop offset="1" stop-color="#073773"/>
</linearGradient>
</defs>
</svg>
